{"title":"The Big Bang Theory Season 1 S01 Complete 1080p x265 HEVC JoyBel","uid":11685097,"size":2929812944,"categoryP":"video","categoryS":"hd___tv_shows","magnet":"?xt=urn:btih:508f6e22aa48ab01197ebf9f3c569b6a96120219&amp;dn=The+Big+Bang+Theory+Season+1+S01+Complete+1080p+x265+HEVC+JoyBel&amp;tr=udp%3A%2F%2Ftracker.openbittorrent.com%3A80&amp;tr=udp%3A%2F%2Fopen.demonii.com%3A1337&amp;tr=udp%3A%2F%2Ftracker.coppersurfer.tk%3A6969&amp;tr=udp%3A%2F%2Fexodus.desync.com%3A6969","seeders":20,"leechers":15,"uploader":"garumon","files":18,"time":1423286194,"description":"The Big Bang Theory Season 1 Complete, in 1080p in H265 aka HEVC and AAC 5.1 audio all for about 170mb each!\nEncoded using 2 pass, from Bluray, with the slow setting for the highest quality possible.\nI also took the painstaking time to convert the Bluray PGS subtitles to the SRT subtitles. Why? Doing so saves about 30mb per episode. \n\nimage\n\nAny questions, or help playing this file, click on the HEVC banner just above. \nPlease watch before rating or commenting on quality. Thank you KickAss community!\n\nimageimageimageimage\n\n\n\n\n\nEncoding info:\n show spoiler\n\n\nFormat : MPEG-4\nFormat profile : Base Media / Version 2\nCodec ID : mp42\nFile size : 172 MiB\nDuration : 21mn 56s\nOverall bit rate mode : Variable\nOverall bit rate : 1 097 Kbps\nWriting application : HandBrake 0.10.0 2014112200\n\nVideo\nID : 1\nFormat : HEVC\nFormat/Info : High Efficiency Video Coding\nFormat profile : &lt;a class=&quot;__cf_email__&quot; href=&quot;/cdn-cgi/l/email-protection&quot; data-cfemail=&quot;89c4e8e0e7c9c5bda7b9&quot;&gt;[email&amp;#160;protected]&lt;/a&gt;&lt;script cf-hash='f9e31' type=&quot;text/javascript&quot;&gt;\n/* &lt;![CDATA[ */!function(){try{var t=&quot;currentScript&quot;in document?document.currentScript:function(){for(var t=document.getElementsByTagName(&quot;script&quot;),e=t.length;e--;)if(t[e].getAttribute(&quot;cf-hash&quot;))return t[e]}();if(t&amp;&amp;t.previousSibling){var e,r,n,i,c=t.previousSibling,a=c.getAttribute(&quot;data-cfemail&quot;);if(a){for(e=&quot;&quot;,r=parseInt(a.substr(0,2),16),n=2;a.length-n;n+=2)i=parseInt(a.substr(n,2),16)^r,e+=String.fromCharCode(i);e=document.createTextNode(e),c.parentNode.replaceChild(e,c)}}}catch(u){}}();/* ]]&gt; */&lt;/script&gt;\nCodec ID : hev1\nCodec ID/Info : High Efficiency Video Coding\nDuration : 21mn 55s\nBit rate : 899 Kbps\nWidth : 1 916 pixels\nHeight : 1 080 pixels\nDisplay aspect ratio : 16:9\nFrame rate mode : Variable\nFrame rate : 23.976 fps\nMinimum frame rate : 23.810 fps\nMaximum frame rate : 24.390 fps\nColor space : YUV\nChroma subsampling : 4:2:0\nBit depth : 8 bits\nBits/(Pixel*Frame) : 0.018\nStream size : 141 MiB (82%)\nWriting library : x265 1.4:[Windows][GCC 4.9.0][64 bit]\nEncoding settings : wpp / ctu=64 / tu-intra-depth=1 / tu-inter-depth=1 / me=1 / subme=2 / merange=57 / no-rect / no-amp / max-merge=2 / temporal-mvp / early-skip / no-fast-cbf / rdpenalty=0 / no-tskip / no-tskip-fast / strong-intra-smoothing / no-lossless / no-cu-lossless / no-constrained-intra / fast-intra / open-gop / interlace=0 / keyint=240 / min-keyint=24 / scenecut=40 / rc-lookahead=15 / bframes=4 / bframe-bias=0 / b-adapt=0 / ref=1 / weightp / no-weightb / aq-mode=2 / aq-strength=1.00 / cbqpoffs=0 / crqpoffs=0 / rd=2 / psy-rd=0.00 / psy-rdoq=0.00 / signhide / lft / sao / no-sao-non-deblock / b-pyramid / no-cutree / rc=2 / pass / bitrate=900 / ratetol=1.0 / qcomp=0.60 / qpmin=0 / qpmax=51 / qpstep=4 / cplxblur=20.0 / qblur=0.5 / ipratio=1.40 / pbratio=1.30\nColor primaries : BT.709\nTransfer characteristics : BT.709\nMatrix coefficients : BT.709\nColor range : Limited\n\nAudio\nID : 2\nFormat : AAC\nFormat/Info : Advanced Audio Codec\nFormat profile : HE-AAC / LC\nCodec ID : 40\nDuration : 21mn 56s\nBit rate mode : Variable\nBit rate : 192 Kbps\nChannel(s) : 2 channels\nChannel(s)_Original : 6 channels\nChannel positions : Front: L C R, Side: L R, LFE\nSampling rate : 48.0 KHz / 24.0 KHz\nCompression mode : Lossy\nStream size : 30.1 MiB (18%)\nTitle : Surround / Surround\nLanguage : English\n\nText #1\nID : 3\nFormat : Timed Text\nMuxing mode : sbtl\nCodec ID : tx3g\nDuration : 21mn 52s\nBit rate mode : Variable\nBit rate : 91 bps\nStream size : 14.6 KiB (0%)\nLanguage : English\n\nText #2\nID : 4\nFormat : Timed Text\nMuxing mode : sbtl\nCodec ID : tx3g\nDuration : 21mn 52s\nBit rate mode : Variable\nBit rate : 81 bps\nStream size : 13.0 KiB (0%)\nLanguage : French\n\nText #3\nID : 5\nFormat : Timed Text\nMuxing mode : sbtl\nCodec ID : tx3g\nDuration : 21mn 52s\nBit rate mode : Variable\nBit rate : 101 bps\nStream size : 16.2 KiB (0%)\nLanguage : German\n\nText #4\nID : 6\nFormat : Timed Text\nMuxing mode : sbtl\nCodec ID : tx3g\nDuration : 21mn 52s\nBit rate mode : Variable\nBit rate : 91 bps\nStream size : 14.6 KiB (0%)\nLanguage : Corsican","torrent":{"xt":"urn:btih:508f6e22aa48ab01197ebf9f3c569b6a96120219","amp;dn":"The+Big+Bang+Theory+Season+1+S01+Complete+1080p+x265+HEVC+JoyBel","amp;tr":["udp%3A%2F%2Ftracker.openbittorrent.com%3A80","udp%3A%2F%2Fopen.demonii.com%3A1337","udp%3A%2F%2Ftracker.coppersurfer.tk%3A6969","udp%3A%2F%2Fexodus.desync.com%3A6969"],"infoHash":"508f6e22aa48ab01197ebf9f3c569b6a96120219","infoHashBuffer":{"type":"Buffer","data":[80,143,110,34,170,72,171,1,25,126,191,159,60,86,155,106,150,18,2,25]},"announce":[],"urlList":[]}}